<svg width="246" height="271" viewBox="0 0 246 271" fill="none" xmlns="http://www.w3.org/2000/svg">
<path d="M93.0795 200.552C91.3921 202.407 89.3533 203.776 87.0787 204.811C83.0281 206.654 78.7383 207.217 74.363 206.898C71.3842 206.681 68.43 206.117 65.4658 205.707C65.25 205.677 65.0353 205.636 64.6353 205.569C64.858 206.204 65.0031 206.741 65.23 207.241C65.96 208.843 66.7901 210.403 67.4438 212.035C67.8569 213.068 68.0208 214.2 68.2968 215.288C68.2008 215.332 68.1067 215.374 68.0107 215.418C67.8408 215.233 67.6621 215.054 67.5002 214.861C65.9029 212.953 64.9269 210.694 63.8889 208.47C63.6373 207.931 63.3722 207.398 63.1329 206.853C62.7587 205.998 62.2823 205.368 61.3117 204.979C60.5758 204.685 60.0318 203.862 59.4615 203.221C58.9687 202.668 58.5775 202.025 58.1021 201.456C57.8614 201.168 57.5332 200.953 57.0773 200.561C57.294 204.467 57.4812 208.146 57.7076 211.823C57.9315 215.463 58.4996 219.06 59.2575 222.64C57.8907 221.299 56.8093 219.797 56.6036 217.923C56.3535 215.638 56.2495 213.333 56.2028 211.033C56.1488 208.397 56.1682 205.767 55.0867 203.286C55.038 203.175 54.981 203.069 54.882 202.867C53.7464 203.586 52.6492 204.292 51.5396 204.978C48.2974 206.982 45.346 209.354 42.6046 212C41.5421 213.025 40.2964 213.794 38.8692 214.231C38.7596 214.264 38.6401 214.266 38.3369 214.31C39.0342 213.524 39.6193 212.867 40.2021 212.207C42.1897 209.959 44.1094 207.627 46.6703 205.991C47.9818 205.154 49.4126 204.503 50.7654 203.727C52.5987 202.676 54.0977 201.313 54.7034 199.106C55.1082 199.358 55.4656 199.579 55.8239 199.803C55.8939 199.744 55.9647 199.687 56.0347 199.629C55.5671 198.96 55.1393 198.256 54.6191 197.631C54.0513 196.948 53.3228 196.391 52.8021 195.678C52.4219 195.16 52.1397 194.502 52.0273 193.868C51.3922 190.269 51.9432 186.75 52.9131 183.283C53.334 181.779 53.891 180.313 54.3208 178.812C54.4715 178.286 54.534 177.688 54.4556 177.149C53.6986 171.921 52.1068 166.911 50.4454 161.919C48.6906 156.647 46.7542 151.427 45.6553 145.963C44.6525 140.977 43.7234 135.97 43.7019 130.861C43.6891 127.805 44.1198 124.776 45.7922 122.148C46.8084 120.551 48.108 119.122 49.3808 117.707C51.0621 115.835 52.6659 113.949 53.6467 111.574C54.6219 109.213 54.892 106.943 53.4681 104.677C53.2445 104.322 53.092 103.92 52.8646 103.566C52.1509 102.449 51.789 101.428 52.4127 100.007C52.8566 98.9967 52.6492 97.6728 52.6242 96.4907C52.6042 95.5531 52.4331 94.6161 52.3071 93.6827C51.9837 91.288 52.9538 89.4101 54.6949 87.8949C55.6075 87.1003 56.625 86.4246 57.6125 85.7194C58.4405 85.1286 59.2868 84.5643 60.136 84.0045C60.8036 83.5664 61.1867 82.9648 61.2685 82.1738C61.3793 81.1215 61.4846 80.067 61.5976 78.9529C61.0161 79.1316 60.4346 79.3103 59.8387 79.4929C59.3785 78.7856 59.5768 78.1086 59.7795 77.4527C59.9394 76.9321 60.1734 76.4347 60.3736 75.9255C60.8704 74.6581 60.7411 74.2307 59.5143 73.4066C60.1622 72.5721 60.7873 71.73 61.4518 70.9182C62.2103 69.9913 62.2781 69.9703 61.645 68.9691C61.2014 68.2685 61.2514 67.7297 61.8487 67.2266C62.5845 66.6054 63.3403 66.0066 64.1007 65.4161C64.4255 65.1654 64.7868 64.9597 65.2762 64.6382C64.631 64.5025 64.1587 64.4037 63.5797 64.2831C64.1431 62.9813 65.2123 62.2043 66.1805 61.2987C65.7597 61.4003 65.3395 61.5728 64.9159 61.585C64.5336 61.5944 64.1473 61.4289 63.7628 61.3394C63.9163 60.9913 63.9951 60.5733 64.2404 60.3084C64.6299 59.8877 65.1309 59.5692 65.5439 59.0936C65.1237 59.1778 64.7054 59.2852 64.281 59.3436C63.2834 59.4797 62.8755 59.0069 63.3173 58.1382C63.6486 57.4854 64.1441 56.9159 64.5748 56.3157C64.7316 56.0958 64.9142 55.8958 65.1391 55.6179C64.1732 54.8676 63.2598 54.1222 62.3083 53.4322C61.9063 53.1415 61.815 52.8722 62.0606 52.4501C62.4847 51.722 62.896 50.9856 63.3101 50.2503C64.0204 48.9864 64.5791 47.7084 63.8851 46.2333C63.812 46.0789 63.9063 45.7987 64.0023 45.6187C65.4564 42.8825 66.9232 40.1547 68.4116 37.3808C69.1614 37.8249 69.1311 38.7761 69.4518 39.6235C70.347 38.7401 70.3424 37.5469 70.7125 36.4681C71.6412 36.5566 72.5506 36.6213 73.4528 36.7361C73.9259 36.7966 74.2249 36.6704 74.3062 36.1859C74.4917 35.0912 74.9908 34.5247 76.2269 34.7793C76.7268 34.8811 77.2959 34.5931 77.837 34.5717C78.7065 34.5353 79.5789 34.5724 80.4766 34.5778C80.4531 34.3918 80.3534 34.0148 80.3686 33.6436C80.3948 32.9958 80.6925 32.8048 81.2987 33.0341C82.3578 33.4348 83.405 33.8692 84.567 34.3335C84.4252 32.9137 83.9815 31.627 84.5325 30.1757C85.5836 30.8092 86.589 31.4164 87.6241 32.0419C88.4031 31.6097 88.5643 31.0897 88.0441 29.9506C87.7145 29.2297 87.6215 28.5551 87.9251 27.7549L91.1511 29.0437C90.8428 27.9684 90.3765 27.0356 90.7341 25.8795C91.9327 26.6378 93.0676 27.3545 94.3353 28.1564C94.1997 27.2031 94.0864 26.4064 93.9663 25.5589C95.5349 24.9814 96.8991 25.6741 98.3469 26.1739C98.4207 25.126 98.49 24.1454 98.5721 22.9804C99.0092 23.2675 99.3725 23.4463 99.6649 23.7061C100.753 24.6723 101.877 24.9223 103.271 24.2685C104.761 23.5712 106.362 23.2044 108.042 23.3374C108.223 23.3522 108.444 23.2928 108.598 23.1922C111.147 21.5275 113.989 21.3721 116.904 21.5089C119.573 21.633 122.246 21.7039 124.917 21.7964C124.966 21.7983 125.017 21.7946 125.065 21.7833C126.196 21.5222 127.362 20.9558 128.445 21.0835C129.572 21.2156 130.675 21.3095 131.811 21.3396C132.906 21.3693 134.047 21.5684 135.075 21.9483C137.024 22.6694 138.922 23.5401 140.814 24.4099C142.792 25.3207 144.829 26.0044 147.016 26.1008C148.217 26.1537 148.983 26.6445 149.268 27.8308C149.408 28.4151 149.746 28.6992 150.365 28.8504C154.685 29.9068 158.936 31.1957 162.865 33.3287C166.345 35.2184 169.787 37.1814 173.218 39.1622C174.976 40.1777 176.676 41.2952 178.387 42.3883C178.615 42.5338 178.811 42.7889 178.927 43.0374C179.315 43.8684 179.677 44.7131 180.015 45.5658C180.287 46.2554 180.74 46.7465 181.439 46.9727C183.112 47.5158 184.231 48.6935 185.187 50.103C185.467 50.515 185.864 50.9499 186.307 51.1348C190.447 52.8645 192.889 56.0718 194.372 60.174C195.231 62.5516 196.112 64.9296 197.632 66.9981C197.745 67.1525 197.777 67.4221 197.744 67.6223C197.241 70.6069 197.825 73.446 198.857 76.2299C199.543 78.0756 200.074 79.9624 200.02 81.9526C200 82.6882 199.957 83.4786 199.678 84.141C199.316 84.9983 199.428 85.6914 199.741 86.5214C200.547 88.6594 200.407 90.909 200.311 93.1457C200.248 94.6074 200.236 96.0702 200.179 97.5308C200.164 97.9214 200.147 98.3464 199.992 98.6939C198.626 101.756 198.199 105.021 197.817 108.305C197.534 110.749 197.192 113.207 195.887 115.356C195.352 116.237 195.299 117.022 195.491 117.999C196.302 122.132 195.999 126.28 194.568 130.178C192.072 136.976 189.313 143.681 186.523 150.367C185.146 153.664 182.449 155.792 179.341 157.426C178.311 157.968 177.335 158.612 176.316 159.178C175.384 159.697 174.761 160.424 174.431 161.456C173.243 165.153 170.913 168.21 168.799 171.386C166.817 174.363 164.888 177.373 163.693 180.773C162.613 183.848 160.121 185.42 157.441 186.825C157.163 186.971 156.82 187.187 156.718 187.451C153.874 194.72 151.549 202.147 150.136 209.836C150.028 210.418 150.055 211.026 150.019 211.622C150.091 211.634 150.163 211.647 150.235 211.66C150.387 211.279 150.534 210.896 150.693 210.518C150.838 210.173 150.962 209.8 151.476 209.916C151.957 210.024 151.993 210.358 151.969 210.764C151.7 215.268 151.477 219.776 151.164 224.278C150.743 230.319 150.327 236.355 150.917 242.407C150.963 242.874 151.009 243.34 151.054 243.782C150.986 243.845 150.948 243.908 150.915 243.905C150.037 243.815 149.803 244.292 149.617 245.086C148.42 250.187 146.155 254.788 142.895 258.885C141.996 260.014 140.9 260.935 139.589 261.562C139.522 261.521 139.455 261.48 139.39 261.439C139.871 260.519 140.278 259.549 140.85 258.691C142.186 256.693 143.678 254.796 144.961 252.765C146.069 251.013 147.061 249.172 147.938 247.294C148.609 245.86 148.412 244.279 148.162 242.747C147.978 241.622 147.699 240.505 147.606 239.372C147.537 238.522 147.493 237.571 147.796 236.808C148.905 234.009 149.199 231.071 149.414 228.134C149.781 223.115 150.004 218.088 150.285 213.064C150.293 212.919 150.271 212.774 150.253 212.466C149.971 212.927 149.812 213.302 149.548 213.575C149.361 213.77 149.032 213.83 148.767 213.949C148.663 213.71 148.458 213.466 148.47 213.231C148.661 209.7 149.4 206.261 150.256 202.841C151.688 197.122 153.784 191.63 155.973 186.171C159.338 177.777 163.607 169.877 168.831 162.496C169.056 162.177 169.275 161.851 169.622 161.343C167.138 161.076 164.8 160.826 162.313 160.56C161.928 161.525 161.506 162.685 161.006 163.809C160.232 165.549 159.404 167.265 158.606 168.993C158.516 169.189 158.403 169.416 158.425 169.613C158.718 172.097 157.992 174.372 157.069 176.621C155.788 179.745 154.493 182.865 153.275 186.013C152.248 188.674 151.446 191.428 150.305 194.038C149.58 195.697 148.449 197.185 147.447 198.714C146.937 199.492 146.058 199.749 145.203 199.907C143.895 200.15 142.757 200.72 141.756 201.564C139.987 203.057 137.979 204.108 135.81 204.882C133.93 205.553 132.364 206.71 130.924 208.071C129.499 209.416 128.044 210.729 125.984 211.546C126.27 211.007 126.455 210.6 126.691 210.222C128.374 207.526 130.791 205.648 133.59 204.273C136.416 202.884 139.325 201.667 142.167 200.311C144.171 199.353 146.101 198.18 147.429 196.382C148.536 194.884 149.508 193.215 150.178 191.481C151.429 188.246 152.387 184.897 153.529 181.619C154.084 180.031 154.778 178.493 155.417 176.934C155.552 176.605 155.714 176.288 155.921 175.842C155.37 176.216 154.953 176.498 154.429 176.855C154.22 175.961 154.405 175.231 154.704 174.54C155.372 172.992 156.068 171.454 156.78 169.924C158.32 166.617 159.985 163.364 161.011 159.842C161.177 159.273 161.336 158.702 161.54 157.992C162.639 158.431 163.669 158.915 164.741 159.258C168.443 160.443 171.997 159.93 175.378 158.123C178.46 156.475 181.181 154.321 183.716 151.927C184.958 150.755 185.642 149.236 186.233 147.671C187.127 145.302 187.988 142.921 188.92 140.567C189.644 138.745 190.415 136.94 191.244 135.165C191.604 134.393 191.724 133.634 191.742 132.801C191.791 130.648 191.952 128.497 191.977 126.343C191.993 124.938 191.967 123.515 191.75 122.131C191.511 120.604 190.675 119.424 189.24 118.652C186.578 117.219 183.92 116.806 181.166 118.342C180.365 118.79 179.588 119.282 178.774 119.701C177.674 120.267 176.553 120.792 175.428 121.309C175.147 121.438 174.823 121.471 174.43 121.412C174.781 121.048 175.096 120.639 175.489 120.327C176.785 119.294 178.03 118.166 179.437 117.311C182.72 115.312 186.066 115.791 189.399 117.306C190.724 117.908 191.679 118.782 192.5 120.02C193.405 121.389 193.929 122.616 193.557 124.32C193.186 126.021 193.216 127.809 193.068 129.56C193.138 129.581 193.208 129.603 193.278 129.624C193.512 128.905 193.781 128.196 193.973 127.466C194.895 123.967 194.728 120.551 192.878 117.384C190.983 114.14 188.1 112.371 184.325 112.117C182.224 111.976 180.428 112.765 178.851 114.058C177.607 115.078 176.467 116.225 175.246 117.276C174.904 117.571 174.462 117.783 174.031 117.937C171.51 118.835 168.933 119.591 166.463 120.611C163.289 121.92 160.7 124.078 158.528 126.732C158.374 126.921 158.207 127.102 158.144 127.175L149.631 123.774C149.954 122.964 150.215 122.326 150.466 121.684C152.088 117.506 153.137 113.219 152.921 108.695C152.678 103.576 151.012 98.8868 148.535 94.4642C147.591 92.7787 146.535 91.1542 145.497 89.5227C145.097 88.894 145.016 88.2692 145.151 87.5461C145.625 84.9947 146.783 82.7163 147.905 80.4175C148.578 79.0362 149.248 77.6499 149.872 76.2453C150.32 75.2349 150.187 74.6453 149.298 73.9868C148.626 73.4887 147.868 73.1022 147.126 72.7049C145.136 71.6353 143.887 69.9193 142.893 67.9597C142.321 66.8337 141.731 65.7152 141.104 64.6185C139.925 62.5561 138.166 61.3446 135.761 61.2505C133.213 61.151 130.663 61.0891 128.113 61.0915C124.871 61.0952 121.764 60.4801 118.749 59.314C117.432 58.8039 116.096 58.339 114.743 57.9336C112.642 57.3028 110.494 57.2861 108.456 58.087C104.157 59.7746 99.8169 59.4666 95.4223 58.6614C93.1233 58.2406 90.8964 57.6993 88.7555 56.6898C85.3665 55.0902 81.9809 55.7991 78.7677 57.293C74.6584 59.2028 71.7068 62.3104 69.8205 66.4618C69.3572 67.4809 68.5937 68.372 67.9113 69.2811C65.1764 72.9264 63.3691 76.944 62.9167 81.5174C62.8927 81.7582 62.901 82.0024 62.8908 82.4013C63.7935 82.1856 64.6484 82.0615 65.4465 81.7783C68.0168 80.8657 70.5692 79.9057 73.1221 78.9444C76.337 77.7354 79.5982 77.6109 82.9113 78.4529C82.9768 78.4695 83.0336 78.5242 83.173 78.6088C82.5368 79.3581 81.921 80.0883 81.3003 80.8149C80.1982 82.1038 79.2361 83.4759 78.6216 85.0784C78.5212 85.3417 78.1699 85.5867 77.8819 85.6852C74.3909 86.8867 71.1622 88.6281 67.9717 90.4505C67.9111 90.4857 67.866 90.5464 67.7506 90.6544C68.8043 91.5025 69.8496 92.3231 70.873 93.1703C73.5972 95.4259 76.1198 97.8531 77.7991 101.042C79.3036 103.897 78.8522 107.327 76.9411 109.915C75.6139 111.711 74.0893 112.495 71.8835 112.52C69.1073 112.55 66.3363 112.797 63.6004 112.116C61.6673 111.635 59.937 110.77 58.5353 109.364C58.4401 109.409 58.3715 109.421 58.3652 109.449C58.1124 110.41 57.4908 110.758 56.5103 110.714C56.1371 110.697 55.7492 110.985 55.3943 111.251C56.7099 112.146 58.2956 111.405 59.6724 112.336C59.079 112.645 58.5155 113.087 57.8856 113.231C56.7549 113.487 55.5813 113.542 54.4335 113.728C54.1485 113.775 53.8119 113.939 53.639 114.159C51.9878 116.264 50.4795 118.494 48.7091 120.492C45.7984 123.778 44.716 127.531 45.1652 131.836C45.8041 137.958 46.5136 144.068 47.9202 150.071C48.887 154.192 50.4716 158.103 52.0014 162.032C53.5514 166.01 55.0754 169.997 55.8964 174.205C56.0913 175.203 56.2795 176.21 56.3391 177.221C56.3724 177.788 56.2075 178.401 56.0034 178.944C55.3313 180.731 54.5655 182.483 53.9003 184.273C52.3979 188.306 53.033 192.129 55.1551 195.767C56.887 198.736 59.3055 201.126 61.7639 203.473C62.0043 203.703 62.4279 203.763 62.7798 203.846C67.1309 204.86 71.5124 205.645 76.0067 205.611C80.3561 205.577 84.4405 204.613 88.2393 202.412C89.7216 201.553 91.3607 200.963 92.9287 200.251C92.9766 200.352 93.0264 200.452 93.0743 200.553L93.0795 200.552ZM77.6126 103.022C77.5144 102.806 77.4654 102.676 77.3993 102.556C75.1684 98.5519 71.9815 95.535 68.0276 93.2457C66.9386 92.6147 66.0013 92.6721 64.9503 93.1064C63.4196 93.7376 61.9432 94.5462 60.2235 94.5704C60.1314 94.5721 60.0279 94.6223 59.951 94.6783C58.2085 95.9441 56.3846 97.1164 55.0898 98.8999C53.6743 100.849 53.8013 103.181 55.4573 104.966C55.6448 104.818 55.8235 104.644 56.031 104.518C57.5276 103.607 58.9448 102.489 60.5491 101.842C64.5762 100.222 68.7178 100.608 72.823 101.64C74.3972 102.036 75.946 102.536 77.6137 103.019L77.6126 103.022ZM58.5826 106.965C58.9415 107.38 59.209 107.734 59.5203 108.043C63.0323 111.519 67.2448 112.097 71.8347 110.932C73.5554 110.495 74.9873 109.521 76.1322 108.145C76.3826 107.844 76.4431 107.64 76.0572 107.373C74.414 106.238 72.6792 105.312 70.713 104.874C66.4203 103.918 62.5874 105.574 58.5832 106.963L58.5826 106.965ZM62.8191 76.4979C63.5584 74.804 64.2316 73.2474 64.9173 71.6958C65.2796 70.8772 65.0626 70.1676 64.5696 69.4905C62.9592 70.289 62.0959 73.6063 62.8177 76.4973L62.8191 76.4979ZM58.4329 108.994C57.5126 108.358 57.2597 107.65 57.4793 106.811C57.6756 106.063 57.9254 105.33 58.1585 104.565C56.5022 104.901 55.4238 107.516 55.878 109.081C56.644 109.055 57.4195 109.029 58.4323 108.995L58.4329 108.994Z" fill="black"/>
<path d="M69.1092 174.854C67.0552 173.917 65.0978 172.878 63.4094 171.362C62.0977 170.184 61.3115 168.743 61.0363 167.015C60.927 166.329 60.8334 165.64 60.7763 164.947C60.6265 163.102 60.2486 161.337 59.3986 159.659C58.6293 158.139 58.0669 156.535 58.9415 154.82C58.9991 154.708 58.8809 154.462 58.7813 154.326C58.5193 153.966 58.2113 153.64 57.9399 153.288C56.3124 151.178 57.1298 148.168 59.1476 147.077C60.3472 146.427 61.6961 145.958 63.0331 145.683C66.6432 144.938 70.2478 145.075 73.879 145.795C77.9575 146.604 82.0994 147.09 86.1896 147.846C91.081 148.748 95.7177 150.429 99.9213 153.106C102.372 154.666 104.535 156.601 106.268 158.987C107.85 161.169 107.799 163.433 106.506 165.625C103.832 170.162 100.105 173.713 95.5888 176.361C94.3318 177.098 92.7518 177.443 91.2776 177.628C85.5508 178.342 79.8992 177.696 74.3211 176.336C72.567 175.908 70.8437 175.351 69.1059 174.855L69.1092 174.854ZM60.8747 156.385C60.8042 156.422 60.7336 156.458 60.6631 156.494C61.0266 158.591 61.3735 160.69 61.7593 162.784C61.9382 163.758 62.1549 164.729 62.4203 165.683C63.2561 168.69 64.793 171.243 67.6657 172.658C69.4981 173.56 71.4444 174.289 73.4088 174.849C78.2189 176.22 83.1288 176.92 88.1562 176.631C91.6877 176.428 94.9513 175.571 97.6374 173.104C98.9907 171.861 100.176 170.488 101.23 168.786C100.889 168.889 100.703 168.932 100.527 169C96.6686 170.498 92.7152 171.56 88.5518 171.73C81.6183 172.012 75.022 170.558 68.6246 167.985C67.5896 167.568 66.6979 167.01 66.163 166.064C65.0207 164.04 63.9819 161.959 62.8767 159.915C62.2339 158.725 61.5433 157.563 60.8736 156.388L60.8747 156.385ZM98.7489 153.984C98.6686 153.896 98.6324 153.83 98.5762 153.798C94.5141 151.438 90.1748 149.772 85.5725 148.873C82.1502 148.204 78.6961 147.699 75.2442 147.188C71.4353 146.623 67.6017 146.29 63.7833 147.029C62.4443 147.289 61.0868 147.736 59.8926 148.384C58.3362 149.228 58.3403 151.322 59.8059 152.54C60.0058 151.899 60.1679 151.277 60.3955 150.679C60.6226 150.082 60.8831 149.495 61.186 148.933C61.4048 148.526 61.7545 148.422 62.2549 148.538C64.7604 149.125 67.2529 149.861 69.7971 150.174C73.5511 150.635 77.3419 150.815 81.1211 151.057C85.5966 151.342 90.0704 151.623 94.4384 152.728C95.8721 153.09 97.2801 153.553 98.7489 153.984ZM78.6839 160.092C78.9051 159.378 79.1745 158.776 79.2685 158.147C79.4714 156.812 79.6043 155.463 79.7079 154.116C79.724 153.915 79.4528 153.534 79.266 153.499C77.19 153.115 76.2795 153.31 75.2168 155.159C73.818 157.596 75.0608 160.359 77.6675 160.677C78.2593 160.749 78.6333 160.632 78.6825 160.091L78.6839 160.092ZM72.0568 152.343C70.9874 153.751 70.3053 155.274 69.8258 156.9C69.2787 158.751 69.4481 159.114 71.3264 159.612C72.542 159.934 73.7131 159.842 74.538 159.19C74.3545 158.072 74.1588 157.144 74.066 156.208C74.0079 155.623 74.0861 155.021 74.1391 154.431C74.2157 153.585 73.7876 153.078 73.0711 152.752C72.7576 152.609 72.4317 152.493 72.0568 152.343ZM85.1109 157.384C85.1347 158.007 84.9497 158.755 85.2309 159.224C85.6968 160.001 86.4475 160.615 87.1198 161.253C87.2156 161.343 87.5874 161.247 87.7589 161.131C88.853 160.388 89.648 159.386 90.1256 158.154C90.5961 156.941 90.62 155.728 89.8948 154.592C89.7894 154.427 89.4762 154.223 89.3431 154.271C87.6697 154.874 86.0646 155.591 85.1122 157.384L85.1109 157.384ZM84.2091 153.706C81.1798 154.11 79.666 157.485 79.7661 159.784C79.7719 159.918 79.9072 160.106 80.0326 160.165C81.4209 160.818 82.769 160.523 83.694 159.324C85.0531 157.565 84.9641 155.663 84.2091 153.706ZM95.2486 158.891C95.2696 158.461 95.4048 157.998 95.2875 157.609C94.9006 156.313 93.2887 155.762 92.1326 156.459C91.1987 157.022 90.8184 157.978 90.3844 158.892C90.3258 159.015 90.4434 159.27 90.5482 159.413C91.0441 160.091 91.5842 160.739 92.0701 161.426C92.4195 161.921 92.7477 161.854 93.1798 161.544C94.1242 160.866 94.6954 159.93 95.2467 158.892L95.2486 158.891ZM67.0641 156.561C66.929 155.301 67.1283 153.955 66.2219 152.875C65.1538 153.641 65.2507 156.695 66.2105 158.24C66.5765 157.817 66.9394 157.399 67.3688 156.902C67.4983 157.751 67.6088 158.474 67.7337 159.298C69.5544 157.583 70.2941 154.178 68.5969 152.612C67.701 153.766 67.404 155.128 67.0641 156.561ZM95.1244 159.39C94.776 160.592 94.9332 161.66 95.6161 162.079C96.4738 162.606 97.54 162.394 98.3297 161.458C98.6893 161.031 98.99 160.524 99.1927 160.004C99.4881 159.241 99.2443 158.61 98.598 158.1C98.0009 157.627 97.2216 157.526 96.5972 157.985C96.0547 158.383 95.6118 158.917 95.1258 159.391L95.1244 159.39ZM91.1699 169.818C90.7958 169.012 90.4673 168.305 90.1062 167.526C88.6062 168.173 86.7072 167.955 85.9187 169.917C87.7084 170.356 89.3869 170.238 91.1699 169.818ZM82.9497 168.166C82.9068 168.165 82.8634 168.165 82.8191 168.163C82.799 168.772 82.7514 169.38 82.7767 169.988C82.7828 170.141 83.0238 170.417 83.1477 170.412C84.2599 170.367 85.3112 170.153 86.0381 169.168C86.3817 168.702 86.4038 168.349 85.8767 168.01C85.5461 167.798 85.2683 167.506 84.9487 167.274C84.065 166.635 83.7792 166.696 83.2147 167.631C83.1118 167.8 83.039 167.986 82.9516 168.165L82.9497 168.166ZM78.564 169.872C79.7379 169.925 80.6904 169.986 81.6452 169.993C81.789 169.995 82.0363 169.761 82.0629 169.606C82.2028 168.831 82.2857 168.045 82.3918 167.241C81.9367 167.059 81.5153 166.817 81.0655 166.738C80.7717 166.687 80.2759 166.771 80.1489 166.973C79.5988 167.84 79.1518 168.774 78.5648 169.874L78.564 169.872ZM101.809 159.022C101.505 159.351 101.212 159.615 100.99 159.927C100.578 160.505 100.144 161.08 99.8367 161.713C99.6022 162.196 99.8133 162.659 100.266 163.002C100.747 163.366 101.134 163.179 101.535 162.879C102.659 162.04 102.828 160.264 101.809 159.022ZM74.8883 169.5C75.1737 168.785 75.4464 168.151 75.6813 167.503C75.9639 166.723 75.7085 166.355 74.8877 166.486C74.4904 166.549 74.1125 166.86 73.7739 167.122C73.549 167.295 73.4083 167.579 73.1521 167.915C73.105 167.31 73.0684 166.856 73.0333 166.402C72.9691 166.37 72.9054 166.336 72.8412 166.304C72.4589 166.731 72.0161 167.121 71.7157 167.6C71.5115 167.926 71.5589 168.454 72.1429 168.281C72.86 168.068 73.3098 168.396 73.8029 168.784C74.1269 169.037 74.4902 169.24 74.8897 169.5L74.8883 169.5ZM78.099 169.988C78.1573 169.501 78.2034 169.108 78.2496 168.715C78.3723 167.696 77.9096 167.049 76.8614 166.774C76.8382 166.768 76.8127 166.775 76.6921 166.78C76.3112 167.601 75.9129 168.461 75.5016 169.35C76.4027 169.572 77.2136 169.771 78.099 169.988ZM92.6525 169.252L92.4618 169.299C92.5601 169.587 92.5759 170.017 92.7754 170.132C93.2222 170.391 93.7844 170.261 93.9274 169.754C94.0009 169.49 93.6874 168.986 93.408 168.786C93.0212 168.509 92.7396 168.805 92.6538 169.252L92.6525 169.252Z" fill="black"/>
<path d="M88.3586 86.0509C90.8664 82.8976 93.9313 81.0683 97.9893 81.2542C100.773 81.382 103.344 82.3226 105.729 83.664C106.549 84.1249 107.054 85.1616 107.673 85.9579C107.929 86.2882 108.129 86.6682 108.313 87.0468C109.507 89.4926 111.563 90.8083 114.077 91.6137C115.819 92.1717 117.621 92.6892 119.202 93.5711C122.764 95.561 125.651 98.3328 127.645 101.938C128.358 103.228 128.021 104.551 127.234 105.661C126.647 106.491 125.805 107.145 125.05 107.85C124.388 108.468 123.658 108.331 123.047 107.808C122.376 107.231 121.647 106.64 121.201 105.9C119.577 103.197 116.994 102.037 114.146 101.21C112.315 100.679 110.484 100.134 108.681 99.5118C106.096 98.6186 104.111 96.9136 102.422 94.7877C101.456 93.5697 100.392 92.4128 99.2639 91.3422C97.6693 89.8285 95.5816 89.2562 93.5439 88.6187C91.9581 88.1232 90.3739 87.6155 89.0248 86.5916C88.8142 86.432 88.6139 86.2589 88.3577 86.049L88.3586 86.0509Z" fill="black"/>
<path d="M65.9839 132.636C64.2306 131.608 64.7655 130.012 65.1003 128.472C63.7516 128.679 62.721 130.159 62.6429 131.948C62.5695 133.61 63.4552 134.946 64.9495 135.314C64.8329 134.854 64.7034 134.44 64.6278 134.015C64.4975 133.277 64.8668 132.911 65.5429 133.218C66.3616 133.59 67.1427 134.08 67.8643 134.619C68.1686 134.845 68.3593 135.303 68.4741 135.694C68.7633 136.685 68.5398 136.947 67.5317 136.941C65.6128 136.926 63.8302 136.453 62.3837 135.151C60.9826 133.888 60.4007 132.995 61.2122 131.125C61.34 130.829 61.4655 130.531 61.5582 130.223C62.0812 128.484 63.1296 127.37 64.8273 126.529C67.6289 125.142 69.6084 122.709 71.4731 120.246C72.9372 118.312 74.343 116.335 75.7216 114.209C75.2029 114.347 74.6615 114.43 74.171 114.633C72.4345 115.354 70.714 116.115 68.9908 116.867C68.8334 116.935 68.6846 117.035 68.5521 117.146C65.1763 119.986 61.673 122.7 58.8805 126.152C57.7179 127.589 56.7974 129.218 55.7573 130.753C55.2929 131.438 54.7399 132.023 53.7935 132.284C54.2509 131.139 54.59 130.033 55.1142 129.022C57.9026 123.637 62.2025 119.716 67.3253 116.635C69.6181 115.256 71.9947 114.018 74.2858 112.635C75.0516 112.172 75.7059 112.145 76.3998 112.6C77.0265 113.011 77.289 112.792 77.6234 112.183C79.5828 108.612 80.1053 104.799 79.7145 100.802C79.5921 99.5506 79.556 98.2918 79.4806 97.019C81.1464 97.2783 81.1528 97.2825 81.4185 98.8015C81.9121 101.625 81.5619 104.385 80.7455 107.103C79.0568 112.727 75.8896 117.499 72.1051 121.892C70.6664 123.562 69.1511 125.17 67.5914 126.729C66.7342 127.586 66.3594 128.552 66.3368 129.717C66.3184 130.675 66.2845 131.631 66.258 132.588C66.1665 132.605 66.0754 132.62 65.9853 132.637L65.9839 132.636Z" fill="black"/>
<path d="M129.748 109.332C128.896 109.791 128.072 110.319 127.185 110.696C125.242 111.52 123.159 111.706 121.08 111.892C119.033 112.074 116.989 112.314 114.94 112.478C114.391 112.522 113.761 112.524 113.283 112.301C108.45 110.058 103.348 109.519 98.1041 109.791C97.8324 109.805 97.5585 109.8 97.2874 109.796C97.2459 109.795 97.2052 109.748 97.1028 109.683C98.0208 107.839 99.3141 106.405 101.354 105.828C103.348 105.265 105.206 105.951 107.064 106.592C105.823 105.141 104.233 104.499 102.394 104.89C100.927 105.202 99.5198 105.794 98.089 106.267C97.6303 106.42 97.1788 106.594 96.6585 106.784C97.5319 104.02 100.526 102.633 103.478 103.454C106.329 104.248 108.764 105.792 111.106 107.523C112.261 108.376 113.421 109.225 114.556 110.105C115.137 110.558 115.748 110.768 116.484 110.679C119.557 110.307 122.633 109.959 125.707 109.586C127.021 109.428 128.331 109.23 129.642 109.051C129.678 109.145 129.714 109.24 129.75 109.335L129.748 109.332Z" fill="black"/>
<path d="M58.9967 133.654C58.3081 134.169 57.6536 134.739 56.9241 135.188C55.1539 136.274 53.6573 137.522 52.9582 139.618C52.1948 141.906 51.906 144.207 52.6745 146.479C53.4882 148.891 54.4028 151.296 55.55 153.563C58.6603 159.711 59.8197 166.213 59.3902 173.033C59.2226 175.698 58.8992 178.354 58.5307 181.023C57.8868 180.27 57.5459 179.404 57.5253 178.484C57.4872 176.777 57.5645 175.066 57.5878 173.357C57.6553 168.225 57.3806 163.119 55.7165 158.222C54.9464 155.954 53.8749 153.785 52.8756 151.601C51.5382 148.68 50.5223 145.718 50.8979 142.421C51.3733 138.252 53.3494 135.105 57.0343 133.053C57.8222 132.615 58.3047 133.334 58.9529 133.418C58.9682 133.496 58.9828 133.576 58.9967 133.654Z" fill="black"/>
<path d="M124.082 149.604C124.546 150.081 124.889 150.4 125.183 150.758C125.284 150.88 125.316 151.116 125.284 151.28C124.595 154.757 123.926 158.237 123.183 161.702C122.198 166.31 119.855 170.184 116.742 173.677C113.972 176.783 111.297 179.977 108.659 183.197C106.965 185.264 105.462 187.488 103.781 189.567C102.273 191.431 100.443 192.936 98.0965 193.935C98.1667 193.759 98.1803 193.673 98.2281 193.613C103.601 187.026 108.964 180.429 114.361 173.862C115.635 172.313 117.038 170.871 118.368 169.367C120.495 166.957 121.482 164.041 122.024 160.947C122.541 157.995 122.982 155.031 123.485 152.077C123.617 151.303 123.853 150.546 124.084 149.603L124.082 149.604Z" fill="black"/>
<path d="M97.7312 130.236C100.329 131.113 102.361 132.527 104.13 134.34C106.785 137.058 108.444 140.375 109.722 143.896C111.85 149.755 112.516 155.779 111.116 161.884C110.5 164.57 109.37 167.137 108.334 169.732C107.713 168.655 107.685 167.569 108.021 166.466C108.548 164.734 109.123 163.018 109.642 161.284C110.955 156.896 110.815 152.553 109.366 148.201C108.004 144.11 106.338 140.18 103.965 136.569C102.756 134.731 101.333 133.173 99.1673 132.423C98.2667 132.112 97.9449 131.283 97.7312 130.236Z" fill="black"/>
<path d="M92.0456 191.63C92.6176 190.536 93.4406 189.797 94.4216 189.245C95.1975 188.808 96.0023 188.404 96.8322 188.085C99.9799 186.88 102.374 184.765 104.286 182.043C106.752 178.533 108.661 174.736 110.224 170.746C112.111 165.927 113.646 161.017 114.358 155.874C114.467 155.092 114.55 154.309 114.666 153.364C115.134 153.551 115.565 153.665 115.921 153.893C116.077 153.992 116.191 154.351 116.145 154.549C115.393 157.805 114.714 161.084 113.812 164.299C112.701 168.27 111.153 172.088 109.268 175.765C106.664 180.842 103.585 185.536 98.9133 188.987C96.9545 190.433 94.0151 191.587 92.0475 191.629L92.0456 191.63Z" fill="black"/>
<path d="M166.717 261.125C166.083 260.291 165.863 259.315 165.816 258.289C165.762 257.126 165.764 255.96 165.681 254.8C165.609 253.808 165.182 252.961 164.51 252.209C157.718 244.604 153.418 235.791 151.74 225.712C151.698 225.459 151.672 225.203 151.614 224.77C153.113 225.92 153.994 227.286 154.444 228.874C154.881 230.418 155.293 232.004 155.421 233.595C155.765 237.876 157.583 241.422 160.41 244.547C161.906 246.2 163.305 247.942 164.827 249.57C166.807 251.688 167.455 254.235 167.375 257.024C167.335 258.397 167.143 259.765 167.02 261.136C166.919 261.132 166.818 261.127 166.716 261.123L166.717 261.125Z" fill="black"/>
<path d="M164.997 148.949C165.307 147.29 166.141 146.029 166.941 144.748C167.4 144.015 167.851 143.272 168.245 142.501C168.951 141.125 168.89 139.691 168.518 138.229C168.304 137.39 168.141 136.535 168.041 135.676C167.981 135.153 168.082 134.61 168.122 133.862C169.28 135.044 170.052 136.168 170.201 137.638C170.465 140.232 169.668 142.582 168.503 144.838C168.076 145.666 167.595 146.466 167.23 147.45C167.929 147.248 168.638 147.074 169.324 146.834C169.908 146.63 170.469 146.362 171.031 146.103C172.299 145.519 173.533 145.757 174.946 146.246C171.787 148.035 168.688 149.374 165 148.949L164.997 148.949Z" fill="black"/>
<path d="M88.1194 130.509C88.9362 129.247 89.7916 128.921 91.0916 129.277C92.8877 129.768 94.4742 130.68 95.9666 131.754C96.2021 131.924 96.4176 132.336 96.3933 132.614C96.2999 133.642 96.136 134.667 95.9288 135.679C95.8304 136.159 95.621 136.63 95.3807 137.059C94.9873 137.763 95.0121 138.701 94.0543 139.09C91.3778 140.181 89.8692 140.419 88.4247 139.847C88.6379 139.181 89.122 138.764 89.7478 138.587C90.4571 138.385 91.1975 138.275 91.9309 138.186C93.3877 138.008 94.2793 137.282 94.6969 135.868C95.138 134.374 94.7198 132.855 93.6723 132C92.6334 131.151 91.4346 130.759 90.1224 130.651C89.4874 130.598 88.8517 130.559 88.1199 130.507L88.1194 130.509Z" fill="black"/>
<path d="M96.7835 111.905C97.1202 112.319 97.372 112.588 97.5782 112.887C99.1457 115.175 101.389 116.261 104.071 116.614C106.761 116.968 109.412 116.545 112.07 116.259C112.852 116.174 113.635 116.105 114.418 116.029L114.504 116.203C114.11 116.462 113.744 116.78 113.321 116.97C108.623 119.098 103.957 119.133 99.4225 116.554C97.6852 115.566 96.7499 113.771 96.7849 111.905L96.7835 111.905Z" fill="black"/>
<path d="M85.2537 71.5333C84.1527 72.5064 82.8801 72.9051 81.5394 73.0165C79.5912 73.179 77.6333 73.2413 75.6799 73.3487C73.9787 73.443 72.4328 73.8272 71.2372 75.2217C70.5802 75.9867 69.6936 76.5397 68.3889 76.4728C68.8198 75.3942 69.2084 74.3934 69.6283 73.4068C69.6808 73.2833 69.8988 73.1954 70.0562 73.1587C74.4821 72.1509 78.9104 71.1489 83.4996 71.3865C84.0859 71.4168 84.6691 71.4828 85.2537 71.5333Z" fill="black"/>
<path d="M83.1838 74.6577C83.9114 74.9484 84.5021 75.1844 85.0914 75.4198C86.9357 76.1518 88.832 76.4406 90.8313 76.3547C92.9007 76.2663 94.9834 76.3293 97.0528 76.4577C97.9157 76.5102 98.7579 76.8997 99.6101 77.1357C99.6231 77.2196 99.6341 77.3043 99.6472 77.3882C99.3105 77.5363 98.984 77.7671 98.6341 77.8119C97.9773 77.8979 97.2801 78.0047 96.6455 77.8748C94.8593 77.5112 93.0998 77.6351 91.3281 77.9099C88.9948 78.2734 86.8009 77.7099 84.6741 76.8217C83.8289 76.468 83.3817 75.8044 83.1824 74.6571L83.1838 74.6577Z" fill="black"/>
<path d="M75.991 139.513C75.6285 138.799 75.2907 138.283 75.0959 137.719C74.8147 136.905 75.1068 136.326 75.8883 135.964C78.1161 134.929 80.4475 134.888 82.8047 135.324C83.6767 135.486 84.5178 135.814 85.3848 136.013C86.5546 136.281 87.2884 137.118 88.0172 137.96C88.4256 138.432 88.6223 138.979 88.247 139.625C87.5293 139.133 86.8511 138.61 86.1201 138.175C83.9433 136.878 81.5916 136.38 79.0577 136.648C77.6321 136.799 76.7256 137.506 76.2607 138.834C76.2073 138.988 76.1401 139.136 75.9902 139.512L75.991 139.513Z" fill="black"/>
<path d="M187.83 132.77C187.951 133.835 188.231 134.908 188.168 135.962C187.937 139.778 186.347 143.03 183.716 145.764C182.773 146.744 181.566 147.211 180.001 147.042C184.837 143.431 186.774 138.422 187.545 132.807C187.64 132.795 187.735 132.782 187.83 132.77Z" fill="black"/>
<path d="M177.033 146.223C181.592 142.81 184.942 138.681 185.254 132.676C185.351 132.689 185.449 132.701 185.545 132.714C185.69 133.367 185.991 134.032 185.948 134.673C185.865 135.921 185.736 137.204 185.36 138.386C184.558 140.911 183.144 143.088 181.086 144.801C179.935 145.759 178.643 146.368 177.031 146.222L177.033 146.223Z" fill="black"/>
<path d="M170.012 133.833C171.738 131.459 173.465 129.085 175.229 126.661C177.12 128.288 179.147 129.851 179.786 132.5C179.725 132.575 179.666 132.651 179.606 132.727C178.856 132.177 178.056 131.684 177.371 131.063C176.665 130.423 176.068 129.66 175.323 128.839C174.796 129.725 174.335 130.589 173.787 131.391C173.289 132.12 172.78 132.891 172.109 133.439C171.604 133.851 170.834 133.936 170.18 134.166C170.124 134.055 170.068 133.945 170.012 133.834L170.012 133.833Z" fill="black"/>
<path d="M117.615 113.19C118.422 113.053 119.231 112.804 120.036 112.808C121.117 112.814 122.197 113.002 123.274 113.143C124.609 113.319 125.934 113.432 127.22 112.878C127.327 112.832 127.472 112.794 127.575 112.829C128.582 113.167 129.587 113.512 130.584 113.878C130.761 113.943 130.953 114.079 131.046 114.236C131.192 114.486 131.26 114.781 131.36 115.057C131.026 115.139 130.632 115.378 130.364 115.277C128.558 114.606 126.686 114.61 124.803 114.553C122.981 114.499 121.158 114.353 119.347 114.153C118.764 114.088 118.214 113.726 117.649 113.5C117.637 113.396 117.627 113.292 117.616 113.188L117.615 113.19Z" fill="black"/>
<path d="M105.426 76.8767C101.31 75.3817 96.938 76.0431 92.9091 74.7001C92.8942 74.625 92.8784 74.5481 92.8635 74.4731C93.5982 74.248 94.3208 73.909 95.0708 73.8185C98.0662 73.4561 100.983 73.9327 103.82 74.883C104.664 75.1659 105.233 75.8071 105.426 76.8767Z" fill="black"/>
<path d="M84.0221 93.4113C83.1527 92.1825 82.7664 90.9573 82.8202 89.6461C82.9476 86.5325 83.9574 83.72 85.977 81.327C86.3507 80.8854 86.9591 80.6115 87.5019 80.3531C87.9295 80.1498 88.2356 80.4921 88.1451 80.867C88.0365 81.3116 87.8229 81.8943 87.473 82.0916C85.3664 83.273 84.8387 85.2763 84.5952 87.4155C84.3926 89.1874 84.2993 90.9708 84.1521 92.7488C84.138 92.9165 84.0887 93.0799 84.0221 93.4113Z" fill="black"/>
<path d="M127.228 118.175C123.326 117.341 119.473 116.518 115.563 115.683C115.761 114.875 116.252 114.515 116.858 114.531C117.583 114.551 118.305 114.756 119.022 114.909C120.197 115.159 121.368 115.437 122.542 115.694C123.573 115.92 124.613 116.11 125.639 116.361C126.598 116.597 126.98 117.361 127.227 118.174L127.228 118.175Z" fill="black"/>
<path d="M80.5607 91.83C78.8894 89.1634 79.3674 86.3327 79.9232 83.4961C81.7074 86.1452 81.2402 88.977 80.5607 91.83Z" fill="black"/>
<path d="M89.9682 100.794C90.2646 101.927 90.0041 102.924 89.7013 103.911C89.261 105.342 88.7947 106.766 88.3533 108.152C87.6013 107.593 87.2196 106.264 87.5628 104.991C87.9865 103.417 88.8183 102.07 89.9688 100.792L89.9682 100.794Z" fill="black"/>
<path d="M132.638 109.297C130.69 107.822 128.482 106.755 128.114 104.007C130.586 104.817 132.632 107.159 132.638 109.297Z" fill="black"/>
</svg>
